<?xml version="1.0" encoding="iso-8859-1"?>
<!-- Generator: Adobe Illustrator 19.1.0, SVG Export Plug-In . SVG Version: 6.00 Build 0)  -->
<!DOCTYPE svg PUBLIC "-//W3C//DTD SVG 1.1//EN" "http://www.w3.org/Graphics/SVG/1.1/DTD/svg11.dtd">
<svg version="1.1" id="Layer_1" xmlns="http://www.w3.org/2000/svg" xmlns:xlink="http://www.w3.org/1999/xlink" x="0px" y="0px"
	 viewBox="0 0 399.634 33.64" style="enable-background:new 0 0 399.634 33.64;" xml:space="preserve">
<g>
	<path style="fill:#757575;" d="M0,0.04h9.56V33.6H0V0.04z M7.52,29.04V4.24h-5.6v24.8H7.52z"/>
	<path style="fill:#757575;" d="M9,0.04h18.32V33.6H9V0.04z M25.679,9.84v-5.6h-15.2v24.8h15.2v-5.6h-9.6v-4h7.08v-5.6h-7.08v-4
		H25.679z"/>
	<path style="fill:#757575;" d="M48.52,0.08v33.56h-21.64V0.08H48.52z M43.12,25.48c1.2-1.2,2.106-2.546,2.72-4.04
		c0.613-1.493,0.92-3.08,0.92-4.76c0-1.68-0.307-3.266-0.92-4.76c-0.614-1.493-1.52-2.826-2.72-4c-1.2-1.2-2.56-2.106-4.08-2.72
		c-1.52-0.613-3.12-0.92-4.8-0.92h-5v24.8h5H35c1.52-0.08,2.973-0.426,4.36-1.04C40.746,27.427,42,26.574,43.12,25.48z"/>
	<path style="fill:#757575;" d="M47.879,0.04h18.32V33.6h-18.32V0.04z M64.559,9.84v-5.6h-15.2v24.8h15.2v-5.6h-9.6v-4h7.08v-5.6
		h-7.08v-4H64.559z"/>
	<path style="fill:#757575;" d="M84.079,0.04V33.6h-18.76V0.04H84.079z M82.798,29.04l-4.72-10.24c1.28-0.613,2.306-1.526,3.08-2.74
		c0.773-1.213,1.16-2.58,1.16-4.1c0-1.066-0.207-2.066-0.62-3c-0.414-0.933-0.967-1.753-1.66-2.46
		c-0.694-0.706-1.507-1.26-2.44-1.66c-0.934-0.4-1.934-0.6-3-0.6h-0.04h-7.52v24.8h5.6v-9.4h0.04l4.32,9.4H82.798z"/>
	<path style="fill:#757575;" d="M83.599,0.04h18.32V33.6h-18.32V0.04z M100.278,9.84v-5.6h-15.2v24.8h15.2v-5.6h-9.6v-4h7.08v-5.6
		h-7.08v-4H100.278z"/>
	<path style="fill:#757575;" d="M101.238,0.04h18.32V33.6h-18.32V0.04z M117.918,9.84v-5.6h-15.2v24.8h15.2v-5.6h-9.6v-4h7.08v-5.6
		h-7.08v-4H117.918z"/>
	<path style="fill:#757575;" d="M118.838,0.04h21.56V33.6h-21.56V0.04z M138.758,29.04V4.24h-5.6v13.84l-6.96-13.84h-5.72v24.8h5.6
		V15.2l7,13.84H138.758z"/>
	<path style="fill:#757575;" d="M159.798,0.04h31.879V33.6h-31.879V0.04z M184.638,29.04l6.039-24.8h-5.6l-3.279,13.48l-3.281-13.48
		h-5.68l-3.279,13.48l-3.28-13.48h-5.6l6.04,24.8h5.68l3.279-13.44l3.281,13.44H184.638z"/>
	<path style="fill:#757575;" d="M191.158,0.04h18.32V33.6h-18.32V0.04z M207.838,9.84v-5.6h-15.2v24.8h15.2v-5.6h-9.601v-4h7.08
		v-5.6h-7.08v-4H207.838z"/>
	<path style="fill:#757575;" d="M227.158,0.08v33.56h-18.56V0.08H227.158z M225.038,21.4c0-1.04-0.2-2.02-0.6-2.94
		c-0.4-0.92-0.947-1.72-1.641-2.4s-1.507-1.213-2.439-1.6c-0.934-0.386-1.92-0.58-2.96-0.58c-0.587,0-1.08-0.18-1.48-0.54
		c-0.399-0.36-0.6-0.82-0.6-1.38c0-0.133,0.026-0.333,0.08-0.6c0.133-0.426,0.386-0.773,0.76-1.04c0.373-0.267,0.786-0.4,1.24-0.4
		c0.56,0,1.04,0.2,1.439,0.6c0.4,0.4,0.601,0.88,0.601,1.44h5.6c0-1.04-0.2-2.026-0.6-2.96c-0.4-0.933-0.947-1.753-1.641-2.46
		c-0.693-0.706-1.507-1.26-2.439-1.66c-0.934-0.4-1.92-0.6-2.96-0.6c-0.854,0-1.674,0.134-2.46,0.4
		c-0.787,0.267-1.5,0.64-2.141,1.12c-0.64,0.48-1.193,1.054-1.66,1.72c-0.467,0.667-0.819,1.387-1.06,2.16
		c-0.24,0.72-0.36,1.48-0.36,2.28c0,1.067,0.207,2.054,0.62,2.96c0.413,0.907,0.967,1.7,1.66,2.38c0.693,0.68,1.5,1.213,2.42,1.6
		c0.92,0.387,1.913,0.58,2.98,0.58c0.56,0,1.04,0.18,1.439,0.54c0.4,0.36,0.601,0.834,0.601,1.42c0,0.134-0.027,0.334-0.08,0.6
		c-0.134,0.427-0.38,0.774-0.74,1.04c-0.36,0.267-0.767,0.4-1.22,0.4c-0.587,0-1.08-0.2-1.48-0.6c-0.399-0.4-0.6-0.893-0.6-1.48
		h-5.601c0,1.067,0.2,2.067,0.601,3c0.399,0.934,0.946,1.747,1.64,2.44s1.507,1.24,2.44,1.64c0.933,0.4,1.933,0.6,3,0.6
		c0.853,0,1.673-0.133,2.46-0.4c0.786-0.266,1.5-0.64,2.14-1.12s1.193-1.053,1.66-1.72c0.466-0.667,0.82-1.387,1.06-2.16
		C224.931,22.907,225.038,22.147,225.038,21.4z"/>
	<path style="fill:#757575;" d="M226.038,0.08h19.72v33.56h-19.72V0.08z M244.277,9.88v-5.6h-16.88v5.6h5.641v19.2h5.6V9.88H244.277
		z"/>
	<path style="fill:#757575;" d="M244.796,0h20.92v33.6h-20.92V0z M263.516,18.92v-5.4h-16.64v5.4H263.516z"/>
	<path style="fill:#757575;" d="M264.876,0.04h25.16V33.6h-25.16V0.04z M280.197,29.04l8.6-24.8h-5.6l-5.84,16.88l-5.84-16.88
		h-5.601l8.601,24.8H280.197z"/>
	<path style="fill:#757575;" d="M289.276,0.04h17.12V33.6h-17.12V0.04z M304.796,29.04v-5.6h-7.92V4.24h-5.601v24.8H304.796z"/>
	<path style="fill:#757575;" d="M305.595,0.04h25.36V33.6h-25.36V0.04z M323.675,29.04h6.04l-8.6-24.8h-6.12l-8.6,24.8h6l3.359-9.6
		h4.601L323.675,29.04z"/>
	<path style="fill:#757575;" d="M330.355,0.04h25.36V33.6h-25.36V0.04z M348.435,29.04h6.04l-8.6-24.8h-6.12l-8.6,24.8h6l3.359-9.6
		h4.601L348.435,29.04z"/>
	<path style="fill:#757575;" d="M355.115,0.04h26.721V33.6h-26.721V0.04z M379.835,4.28l0.04-0.04h-5.641v0.04l-5.8,16.72
		l-5.8-16.76h-5.681v24.8h5.601v-8.92l3.08,8.92h5.6l3-8.64v8.64h5.601V4.28z"/>
	<path style="fill:#757575;" d="M399.634,0.08v33.56h-18.56V0.08H399.634z M397.514,21.4c0-1.04-0.2-2.02-0.6-2.94
		c-0.4-0.92-0.947-1.72-1.641-2.4s-1.507-1.213-2.439-1.6c-0.934-0.386-1.92-0.58-2.96-0.58c-0.587,0-1.08-0.18-1.48-0.54
		c-0.399-0.36-0.6-0.82-0.6-1.38c0-0.133,0.026-0.333,0.08-0.6c0.133-0.426,0.386-0.773,0.76-1.04c0.373-0.267,0.786-0.4,1.24-0.4
		c0.56,0,1.04,0.2,1.439,0.6c0.4,0.4,0.601,0.88,0.601,1.44h5.6c0-1.04-0.2-2.026-0.6-2.96c-0.4-0.933-0.947-1.753-1.641-2.46
		c-0.693-0.706-1.507-1.26-2.439-1.66c-0.934-0.4-1.92-0.6-2.96-0.6c-0.854,0-1.674,0.134-2.46,0.4
		c-0.787,0.267-1.5,0.64-2.141,1.12c-0.64,0.48-1.193,1.054-1.66,1.72c-0.467,0.667-0.819,1.387-1.06,2.16
		c-0.24,0.72-0.36,1.48-0.36,2.28c0,1.067,0.207,2.054,0.62,2.96c0.413,0.907,0.967,1.7,1.66,2.38c0.693,0.68,1.5,1.213,2.42,1.6
		c0.92,0.387,1.913,0.58,2.98,0.58c0.56,0,1.04,0.18,1.439,0.54c0.4,0.36,0.601,0.834,0.601,1.42c0,0.134-0.027,0.334-0.08,0.6
		c-0.134,0.427-0.38,0.774-0.74,1.04c-0.36,0.267-0.767,0.4-1.22,0.4c-0.587,0-1.08-0.2-1.48-0.6c-0.399-0.4-0.6-0.893-0.6-1.48
		h-5.601c0,1.067,0.2,2.067,0.601,3c0.399,0.934,0.946,1.747,1.64,2.44s1.507,1.24,2.44,1.64c0.933,0.4,1.933,0.6,3,0.6
		c0.853,0,1.673-0.133,2.46-0.4c0.786-0.266,1.5-0.64,2.14-1.12s1.193-1.053,1.66-1.72c0.466-0.667,0.82-1.387,1.06-2.16
		C397.408,22.907,397.514,22.147,397.514,21.4z"/>
</g>
</svg>
